<mxfile host="app.diagrams.net" modified="2022-11-24T07:30:04.297Z" agent="5.0 (Macintosh; Intel Mac OS X 10_15_7) AppleWebKit/537.36 (KHTML, like Gecko) Chrome/107.0.0.0 Safari/537.36" etag="e1ifMei77rWtsiNkC5Va" version="20.5.3" type="github">
  <diagram id="IHmBxGGN5NxLIhvL8qIG" name="第 1 页">
    <mxGraphModel dx="1406" dy="670" grid="1" gridSize="10" guides="1" tooltips="1" connect="1" arrows="1" fold="1" page="1" pageScale="1" pageWidth="827" pageHeight="1169" math="0" shadow="0">
      <root>
        <mxCell id="0" />
        <mxCell id="1" parent="0" />
        <mxCell id="6_oz57M6o9EB0XfQOqTm-1" value="客户" style="rounded=1;whiteSpace=wrap;html=1;" vertex="1" parent="1">
          <mxGeometry x="90" y="130" width="120" height="60" as="geometry" />
        </mxCell>
        <mxCell id="6_oz57M6o9EB0XfQOqTm-2" value="" style="endArrow=classic;html=1;rounded=0;" edge="1" parent="1">
          <mxGeometry width="50" height="50" relative="1" as="geometry">
            <mxPoint x="220" y="140" as="sourcePoint" />
            <mxPoint x="370" y="70" as="targetPoint" />
          </mxGeometry>
        </mxCell>
        <mxCell id="6_oz57M6o9EB0XfQOqTm-6" value="新" style="edgeLabel;html=1;align=center;verticalAlign=middle;resizable=0;points=[];" vertex="1" connectable="0" parent="6_oz57M6o9EB0XfQOqTm-2">
          <mxGeometry x="-0.0128" y="-2" relative="1" as="geometry">
            <mxPoint as="offset" />
          </mxGeometry>
        </mxCell>
        <mxCell id="6_oz57M6o9EB0XfQOqTm-3" value="" style="endArrow=classic;html=1;rounded=0;" edge="1" parent="1">
          <mxGeometry width="50" height="50" relative="1" as="geometry">
            <mxPoint x="220" y="190" as="sourcePoint" />
            <mxPoint x="360" y="250" as="targetPoint" />
          </mxGeometry>
        </mxCell>
        <mxCell id="6_oz57M6o9EB0XfQOqTm-7" value="旧" style="edgeLabel;html=1;align=center;verticalAlign=middle;resizable=0;points=[];" vertex="1" connectable="0" parent="6_oz57M6o9EB0XfQOqTm-3">
          <mxGeometry x="-0.0922" y="-1" relative="1" as="geometry">
            <mxPoint as="offset" />
          </mxGeometry>
        </mxCell>
        <mxCell id="6_oz57M6o9EB0XfQOqTm-4" value="新客户&lt;br&gt;1、之前从未添加过好友&lt;br&gt;2、客服号与客户好友互删" style="rounded=1;whiteSpace=wrap;html=1;" vertex="1" parent="1">
          <mxGeometry x="370" y="40" width="170" height="60" as="geometry" />
        </mxCell>
        <mxCell id="6_oz57M6o9EB0XfQOqTm-5" value="老客户&lt;br&gt;1、之前添加过客服号好友" style="rounded=1;whiteSpace=wrap;html=1;" vertex="1" parent="1">
          <mxGeometry x="370" y="220" width="190" height="60" as="geometry" />
        </mxCell>
      </root>
    </mxGraphModel>
  </diagram>
</mxfile>
